<svg width="4" height="20" viewBox="0 0 4 20" fill="none" xmlns="http://www.w3.org/2000/svg">
<path fill-rule="evenodd" clip-rule="evenodd" d="M2 5.33341C3.1 5.33341 4 4.28341 4 3.00008C4 1.71675 3.1 0.666748 2 0.666748C0.9 0.666748 0 1.71675 0 3.00008C0 4.28341 0.9 5.33341 2 5.33341ZM2 7.66675C0.9 7.66675 0 8.71675 0 10.0001C0 11.2834 0.9 12.3334 2 12.3334C3.1 12.3334 4 11.2834 4 10.0001C4 8.71675 3.1 7.66675 2 7.66675ZM0 17.0001C0 15.7167 0.9 14.6667 2 14.6667C3.1 14.6667 4 15.7167 4 17.0001C4 18.2834 3.1 19.3334 2 19.3334C0.9 19.3334 0 18.2834 0 17.0001Z" fill="#ADB5BD"/>
</svg>
